<svg xmlns="http://www.w3.org/2000/svg" xmlns:xlink="http://www.w3.org/1999/xlink" width="40.039" height="50.049" viewBox="0 0 40.039 50.049">
  <defs>
    <clipPath id="clip-path">
      <path id="Контур_51" data-name="Контур 51" d="M127.5,112.5h40.039v50.049H127.5Zm0,0" transform="translate(-127.5 -112.5)"/>
    </clipPath>
    <clipPath id="clip-path-2">
      <path id="Контур_56" data-name="Контур 56" d="M208,138h13.179v14.014H208Zm0,0" transform="translate(-208 -138)"/>
    </clipPath>
    <clipPath id="clip-path-3">
      <path id="Контур_58" data-name="Контур 58" d="M202,112.5h15.181v15.181H202Zm0,0" transform="translate(-202 -112.5)"/>
    </clipPath>
  </defs>
  <g id="PDF_logo" data-name="PDF logo" transform="translate(-127.5 -112.5)">
    <g id="Сгруппировать_98" data-name="Сгруппировать 98" transform="translate(127.5 112.5)" clip-path="url(#clip-path)">
      <path id="Контур_50" data-name="Контур 50" d="M132.5,112.5h20.019l15.015,15.015v30.029a5.006,5.006,0,0,1-.843,2.78,5.043,5.043,0,0,1-1.382,1.382,5.011,5.011,0,0,1-2.78.843H132.5a4.992,4.992,0,0,1-2.78-.843,5.043,5.043,0,0,1-1.382-1.382,5.012,5.012,0,0,1-.843-2.78V117.5a4.993,4.993,0,0,1,.843-2.78,5.042,5.042,0,0,1,1.382-1.382,5.012,5.012,0,0,1,2.78-.843Zm0,0" transform="translate(-127.5 -112.5)" fill="#de3b38"/>
    </g>
    <g id="Сгруппировать_105" data-name="Сгруппировать 105" transform="translate(133.511 138.382)">
      <g id="Сгруппировать_100" data-name="Сгруппировать 100" transform="translate(0 0)">
        <g id="Сгруппировать_99" data-name="Сгруппировать 99" transform="translate(0 0)">
          <path id="Контур_52" data-name="Контур 52" d="M11.513-27.684a3.776,3.776,0,0,1-.224,1.288A3.077,3.077,0,0,1,10.6-25.3a3.275,3.275,0,0,1-1.173.756,4.56,4.56,0,0,1-1.684.282H5.179v3.639H3.016V-30.953h4.64a5.509,5.509,0,0,1,1.715.24,3.241,3.241,0,0,1,1.2.667,2.661,2.661,0,0,1,.709,1.037A3.61,3.61,0,0,1,11.513-27.684Zm-2.179.037a1.509,1.509,0,0,0-.48-1.21,2.155,2.155,0,0,0-1.444-.417H5.179v3.347H7.473a2.465,2.465,0,0,0,.829-.125,1.581,1.581,0,0,0,.579-.349,1.378,1.378,0,0,0,.344-.547A2.128,2.128,0,0,0,9.334-27.648Zm0,0" transform="translate(-3.016 30.953)" fill="#fff"/>
        </g>
      </g>
      <g id="Сгруппировать_102" data-name="Сгруппировать 102" transform="translate(10.015 0)">
        <g id="Сгруппировать_101" data-name="Сгруппировать 101" transform="translate(0 0)">
          <path id="Контур_53" data-name="Контур 53" d="M12.222-25.865a6.087,6.087,0,0,1-.391,2.268,4.649,4.649,0,0,1-1.064,1.637,4.4,4.4,0,0,1-1.6,1,5.747,5.747,0,0,1-1.981.334H3.016V-30.953H6.754a7.671,7.671,0,0,1,2.205.3,4.616,4.616,0,0,1,1.731.923,4.179,4.179,0,0,1,1.126,1.58A5.832,5.832,0,0,1,12.222-25.865Zm-2.179,0A4.387,4.387,0,0,0,9.8-27.413a2.774,2.774,0,0,0-.688-1.058,2.727,2.727,0,0,0-1.053-.615,4.371,4.371,0,0,0-1.35-.2H5.179V-22.3h1.83a3.169,3.169,0,0,0,1.2-.224,2.633,2.633,0,0,0,.964-.678,3.232,3.232,0,0,0,.636-1.121A4.752,4.752,0,0,0,10.043-25.865Zm0,0" transform="translate(-3.016 30.953)" fill="#fff"/>
        </g>
      </g>
      <g id="Сгруппировать_104" data-name="Сгруппировать 104" transform="translate(20.858 0)">
        <g id="Сгруппировать_103" data-name="Сгруппировать 103" transform="translate(0 0)">
          <path id="Контур_54" data-name="Контур 54" d="M5.179-29.285v3.2H10.46v1.673H5.179v3.79H3.016V-30.953h7.617v1.668Zm0,0" transform="translate(-3.016 30.953)" fill="#fff"/>
        </g>
      </g>
    </g>
    <g id="Сгруппировать_106" data-name="Сгруппировать 106" transform="translate(154.359 121.008)" clip-path="url(#clip-path-2)">
      <path id="Контур_55" data-name="Контур 55" d="M221.611,152.564l-12.963-8.358,6.482-5.229,6.482,6.18Zm0,0" transform="translate(-208.432 -138.651)" fill="#d13532"/>
    </g>
    <g id="Сгруппировать_107" data-name="Сгруппировать 107" transform="translate(152.357 112.5)" clip-path="url(#clip-path-3)">
      <path id="Контур_57" data-name="Контур 57" d="M202.5,112.5v10.01a5.005,5.005,0,0,0,.843,2.78,5.042,5.042,0,0,0,1.382,1.382,5.012,5.012,0,0,0,2.78.843h10.01Zm0,0" transform="translate(-202.333 -112.5)" fill="#d56c6f"/>
    </g>
  </g>
</svg>
