<svg xmlns="http://www.w3.org/2000/svg" xmlns:xlink="http://www.w3.org/1999/xlink" width="500" zoomAndPan="magnify" viewBox="0 0 375 374.999991" height="500" preserveAspectRatio="xMidYMid meet" version="1.0"><defs><g/><clipPath id="id1"><path d="M 140 102 L 220 102 L 220 181 L 140 181 Z M 140 102 " clip-rule="nonzero"/></clipPath><clipPath id="id2"><path d="M 176.410156 157.058594 L 175.417969 159.445312 L 174.039062 162.777344 L 173.617188 163.789062 Z M 141.976562 177.496094 L 141.273438 179.066406 L 140.640625 180.488281 L 141.972656 177.496094 Z M 149.332031 172.414062 L 175.417969 159.445312 Z M 199.609375 159.175781 L 197.554688 154.21875 L 197.382812 153.796875 L 187.570312 130.132812 L 177.09375 155.40625 L 150.867188 168.445312 L 144.628906 171.546875 L 175.039062 103.378906 L 175.386719 102.597656 L 200.039062 102.597656 L 200.390625 103.378906 L 219.652344 146.417969 C 217.421875 151.6875 214.410156 156.761719 210.703125 161.480469 L 197.9375 155.136719 Z M 199.609375 159.175781 " clip-rule="evenodd"/></clipPath><linearGradient x1="312.807799" gradientTransform="matrix(0.052251, 0, 0, 0.0522027, 120.454706, 95.153808)" y1="212.345303" x2="1774.501211" gradientUnits="userSpaceOnUse" y2="1752.344276" id="id3"><stop stop-opacity="1" stop-color="rgb(0%, 0%, 0%)" offset="0"/><stop stop-opacity="1" stop-color="rgb(0%, 0%, 0%)" offset="0.25"/><stop stop-opacity="1" stop-color="rgb(0%, 0%, 0%)" offset="0.375"/><stop stop-opacity="1" stop-color="rgb(0%, 0%, 0%)" offset="0.4375"/><stop stop-opacity="1" stop-color="rgb(0%, 0%, 0%)" offset="0.46875"/><stop stop-opacity="1" stop-color="rgb(0%, 0%, 0%)" offset="0.476563"/><stop stop-opacity="1" stop-color="rgb(0.465393%, 0.465393%, 0.465393%)" offset="0.480469"/><stop stop-opacity="1" stop-color="rgb(0.932312%, 0.932312%, 0.932312%)" offset="0.484375"/><stop stop-opacity="1" stop-color="rgb(1.600647%, 1.600647%, 1.600647%)" offset="0.488281"/><stop stop-opacity="1" stop-color="rgb(2.268982%, 2.268982%, 2.268982%)" offset="0.492188"/><stop stop-opacity="1" stop-color="rgb(2.937317%, 2.937317%, 2.937317%)" offset="0.496094"/><stop stop-opacity="1" stop-color="rgb(3.605652%, 3.605652%, 3.605652%)" offset="0.5"/><stop stop-opacity="1" stop-color="rgb(4.273987%, 4.273987%, 4.273987%)" offset="0.503906"/><stop stop-opacity="1" stop-color="rgb(4.942322%, 4.942322%, 4.942322%)" offset="0.507812"/><stop stop-opacity="1" stop-color="rgb(5.610657%, 5.610657%, 5.610657%)" offset="0.511719"/><stop stop-opacity="1" stop-color="rgb(6.278992%, 6.278992%, 6.278992%)" offset="0.515625"/><stop stop-opacity="1" stop-color="rgb(6.947327%, 6.947327%, 6.947327%)" offset="0.519531"/><stop stop-opacity="1" stop-color="rgb(7.615662%, 7.615662%, 7.615662%)" offset="0.523438"/><stop stop-opacity="1" stop-color="rgb(8.283997%, 8.283997%, 8.283997%)" offset="0.527344"/><stop stop-opacity="1" stop-color="rgb(8.953857%, 8.953857%, 8.953857%)" offset="0.53125"/><stop stop-opacity="1" stop-color="rgb(9.622192%, 9.622192%, 9.622192%)" offset="0.535156"/><stop stop-opacity="1" stop-color="rgb(10.290527%, 10.290527%, 10.290527%)" offset="0.539062"/><stop stop-opacity="1" stop-color="rgb(10.958862%, 10.958862%, 10.958862%)" offset="0.542969"/><stop stop-opacity="1" stop-color="rgb(11.627197%, 11.627197%, 11.627197%)" offset="0.546875"/><stop stop-opacity="1" stop-color="rgb(12.295532%, 12.295532%, 12.295532%)" offset="0.550781"/><stop stop-opacity="1" stop-color="rgb(12.963867%, 12.963867%, 12.963867%)" offset="0.554688"/><stop stop-opacity="1" stop-color="rgb(13.632202%, 13.632202%, 13.632202%)" offset="0.558594"/><stop stop-opacity="1" stop-color="rgb(14.300537%, 14.300537%, 14.300537%)" offset="0.5625"/><stop stop-opacity="1" stop-color="rgb(14.968872%, 14.968872%, 14.968872%)" offset="0.566406"/><stop stop-opacity="1" stop-color="rgb(15.637207%, 15.637207%, 15.637207%)" offset="0.570312"/><stop stop-opacity="1" stop-color="rgb(16.305542%, 16.305542%, 16.305542%)" offset="0.574219"/><stop stop-opacity="1" stop-color="rgb(16.973877%, 16.973877%, 16.973877%)" offset="0.578125"/><stop stop-opacity="1" stop-color="rgb(17.642212%, 17.642212%, 17.642212%)" offset="0.582031"/><stop stop-opacity="1" stop-color="rgb(18.312073%, 18.312073%, 18.312073%)" offset="0.585938"/><stop stop-opacity="1" stop-color="rgb(18.980408%, 18.980408%, 18.980408%)" offset="0.589844"/><stop stop-opacity="1" stop-color="rgb(19.648743%, 19.648743%, 19.648743%)" offset="0.59375"/><stop stop-opacity="1" stop-color="rgb(20.317078%, 20.317078%, 20.317078%)" offset="0.597656"/><stop stop-opacity="1" stop-color="rgb(20.985413%, 20.985413%, 20.985413%)" offset="0.601562"/><stop stop-opacity="1" stop-color="rgb(21.653748%, 21.653748%, 21.653748%)" offset="0.605469"/><stop stop-opacity="1" stop-color="rgb(22.322083%, 22.322083%, 22.322083%)" offset="0.609375"/><stop stop-opacity="1" stop-color="rgb(22.990417%, 22.990417%, 22.990417%)" offset="0.613281"/><stop stop-opacity="1" stop-color="rgb(23.658752%, 23.658752%, 23.658752%)" offset="0.617188"/><stop stop-opacity="1" stop-color="rgb(24.327087%, 24.327087%, 24.327087%)" offset="0.621094"/><stop stop-opacity="1" stop-color="rgb(24.995422%, 24.995422%, 24.995422%)" offset="0.625"/><stop stop-opacity="1" stop-color="rgb(25.663757%, 25.663757%, 25.663757%)" offset="0.628906"/><stop stop-opacity="1" stop-color="rgb(26.332092%, 26.332092%, 26.332092%)" offset="0.632812"/><stop stop-opacity="1" stop-color="rgb(27.000427%, 27.000427%, 27.000427%)" offset="0.636719"/><stop stop-opacity="1" stop-color="rgb(27.670288%, 27.670288%, 27.670288%)" offset="0.640625"/><stop stop-opacity="1" stop-color="rgb(28.338623%, 28.338623%, 28.338623%)" offset="0.644531"/><stop stop-opacity="1" stop-color="rgb(29.006958%, 29.006958%, 29.006958%)" offset="0.648437"/><stop stop-opacity="1" stop-color="rgb(29.675293%, 29.675293%, 29.675293%)" offset="0.652344"/><stop stop-opacity="1" stop-color="rgb(30.343628%, 30.343628%, 30.343628%)" offset="0.65625"/><stop stop-opacity="1" stop-color="rgb(31.011963%, 31.011963%, 31.011963%)" offset="0.660156"/><stop stop-opacity="1" stop-color="rgb(31.680298%, 31.680298%, 31.680298%)" offset="0.664062"/><stop stop-opacity="1" stop-color="rgb(32.348633%, 32.348633%, 32.348633%)" offset="0.667969"/><stop stop-opacity="1" stop-color="rgb(33.016968%, 33.016968%, 33.016968%)" offset="0.671875"/><stop stop-opacity="1" stop-color="rgb(33.685303%, 33.685303%, 33.685303%)" offset="0.675781"/><stop stop-opacity="1" stop-color="rgb(34.353638%, 34.353638%, 34.353638%)" offset="0.679688"/><stop stop-opacity="1" stop-color="rgb(35.021973%, 35.021973%, 35.021973%)" offset="0.683594"/><stop stop-opacity="1" stop-color="rgb(35.690308%, 35.690308%, 35.690308%)" offset="0.6875"/><stop stop-opacity="1" stop-color="rgb(36.358643%, 36.358643%, 36.358643%)" offset="0.691406"/><stop stop-opacity="1" stop-color="rgb(37.028503%, 37.028503%, 37.028503%)" offset="0.695312"/><stop stop-opacity="1" stop-color="rgb(37.696838%, 37.696838%, 37.696838%)" offset="0.699219"/><stop stop-opacity="1" stop-color="rgb(38.365173%, 38.365173%, 38.365173%)" offset="0.703125"/><stop stop-opacity="1" stop-color="rgb(39.033508%, 39.033508%, 39.033508%)" offset="0.707031"/><stop stop-opacity="1" stop-color="rgb(39.701843%, 39.701843%, 39.701843%)" offset="0.710938"/><stop stop-opacity="1" stop-color="rgb(40.370178%, 40.370178%, 40.370178%)" offset="0.714844"/><stop stop-opacity="1" stop-color="rgb(41.038513%, 41.038513%, 41.038513%)" offset="0.71875"/><stop stop-opacity="1" stop-color="rgb(41.706848%, 41.706848%, 41.706848%)" offset="0.722656"/><stop stop-opacity="1" stop-color="rgb(42.375183%, 42.375183%, 42.375183%)" offset="0.726563"/><stop stop-opacity="1" stop-color="rgb(43.043518%, 43.043518%, 43.043518%)" offset="0.730469"/><stop stop-opacity="1" stop-color="rgb(43.711853%, 43.711853%, 43.711853%)" offset="0.734375"/><stop stop-opacity="1" stop-color="rgb(44.380188%, 44.380188%, 44.380188%)" offset="0.738281"/><stop stop-opacity="1" stop-color="rgb(45.048523%, 45.048523%, 45.048523%)" offset="0.742188"/><stop stop-opacity="1" stop-color="rgb(45.716858%, 45.716858%, 45.716858%)" offset="0.746094"/><stop stop-opacity="1" stop-color="rgb(46.386719%, 46.386719%, 46.386719%)" offset="0.75"/><stop stop-opacity="1" stop-color="rgb(47.055054%, 47.055054%, 47.055054%)" offset="0.753906"/><stop stop-opacity="1" stop-color="rgb(47.723389%, 47.723389%, 47.723389%)" offset="0.757812"/><stop stop-opacity="1" stop-color="rgb(48.391724%, 48.391724%, 48.391724%)" offset="0.761719"/><stop stop-opacity="1" stop-color="rgb(49.060059%, 49.060059%, 49.060059%)" offset="0.765625"/><stop stop-opacity="1" stop-color="rgb(49.728394%, 49.728394%, 49.728394%)" offset="0.769531"/><stop stop-opacity="1" stop-color="rgb(50.396729%, 50.396729%, 50.396729%)" offset="0.773438"/><stop stop-opacity="1" stop-color="rgb(51.065063%, 51.065063%, 51.065063%)" offset="0.777344"/><stop stop-opacity="1" stop-color="rgb(51.733398%, 51.733398%, 51.733398%)" offset="0.78125"/><stop stop-opacity="1" stop-color="rgb(52.401733%, 52.401733%, 52.401733%)" offset="0.785156"/><stop stop-opacity="1" stop-color="rgb(53.070068%, 53.070068%, 53.070068%)" offset="0.789062"/><stop stop-opacity="1" stop-color="rgb(53.738403%, 53.738403%, 53.738403%)" offset="0.792969"/><stop stop-opacity="1" stop-color="rgb(54.408264%, 54.408264%, 54.408264%)" offset="0.796875"/><stop stop-opacity="1" stop-color="rgb(55.076599%, 55.076599%, 55.076599%)" offset="0.800781"/><stop stop-opacity="1" stop-color="rgb(55.744934%, 55.744934%, 55.744934%)" offset="0.804688"/><stop stop-opacity="1" stop-color="rgb(56.413269%, 56.413269%, 56.413269%)" offset="0.808594"/><stop stop-opacity="1" stop-color="rgb(57.081604%, 57.081604%, 57.081604%)" offset="0.8125"/><stop stop-opacity="1" stop-color="rgb(57.749939%, 57.749939%, 57.749939%)" offset="0.816406"/><stop stop-opacity="1" stop-color="rgb(58.418274%, 58.418274%, 58.418274%)" offset="0.820312"/><stop stop-opacity="1" stop-color="rgb(59.086609%, 59.086609%, 59.086609%)" offset="0.824219"/><stop stop-opacity="1" stop-color="rgb(59.754944%, 59.754944%, 59.754944%)" offset="0.828125"/><stop stop-opacity="1" stop-color="rgb(60.423279%, 60.423279%, 60.423279%)" offset="0.832031"/><stop stop-opacity="1" stop-color="rgb(61.091614%, 61.091614%, 61.091614%)" offset="0.835938"/><stop stop-opacity="1" stop-color="rgb(61.759949%, 61.759949%, 61.759949%)" offset="0.839844"/><stop stop-opacity="1" stop-color="rgb(62.428284%, 62.428284%, 62.428284%)" offset="0.84375"/><stop stop-opacity="1" stop-color="rgb(63.096619%, 63.096619%, 63.096619%)" offset="0.847656"/><stop stop-opacity="1" stop-color="rgb(63.766479%, 63.766479%, 63.766479%)" offset="0.851563"/><stop stop-opacity="1" stop-color="rgb(64.434814%, 64.434814%, 64.434814%)" offset="0.855469"/><stop stop-opacity="1" stop-color="rgb(65.103149%, 65.103149%, 65.103149%)" offset="0.859375"/><stop stop-opacity="1" stop-color="rgb(65.771484%, 65.771484%, 65.771484%)" offset="0.863281"/><stop stop-opacity="1" stop-color="rgb(66.439819%, 66.439819%, 66.439819%)" offset="0.867188"/><stop stop-opacity="1" stop-color="rgb(67.108154%, 67.108154%, 67.108154%)" offset="0.871094"/><stop stop-opacity="1" stop-color="rgb(67.776489%, 67.776489%, 67.776489%)" offset="0.875"/><stop stop-opacity="1" stop-color="rgb(68.444824%, 68.444824%, 68.444824%)" offset="0.878906"/><stop stop-opacity="1" stop-color="rgb(69.113159%, 69.113159%, 69.113159%)" offset="0.882812"/><stop stop-opacity="1" stop-color="rgb(69.781494%, 69.781494%, 69.781494%)" offset="0.886719"/><stop stop-opacity="1" stop-color="rgb(70.449829%, 70.449829%, 70.449829%)" offset="0.890625"/><stop stop-opacity="1" stop-color="rgb(71.118164%, 71.118164%, 71.118164%)" offset="0.894531"/><stop stop-opacity="1" stop-color="rgb(71.786499%, 71.786499%, 71.786499%)" offset="0.898438"/><stop stop-opacity="1" stop-color="rgb(72.454834%, 72.454834%, 72.454834%)" offset="0.902344"/><stop stop-opacity="1" stop-color="rgb(73.124695%, 73.124695%, 73.124695%)" offset="0.90625"/><stop stop-opacity="1" stop-color="rgb(73.79303%, 73.79303%, 73.79303%)" offset="0.910156"/><stop stop-opacity="1" stop-color="rgb(74.461365%, 74.461365%, 74.461365%)" offset="0.914062"/><stop stop-opacity="1" stop-color="rgb(75.1297%, 75.1297%, 75.1297%)" offset="0.917969"/><stop stop-opacity="1" stop-color="rgb(75.798035%, 75.798035%, 75.798035%)" offset="0.921875"/><stop stop-opacity="1" stop-color="rgb(76.46637%, 76.46637%, 76.46637%)" offset="0.925781"/><stop stop-opacity="1" stop-color="rgb(77.134705%, 77.134705%, 77.134705%)" offset="0.929688"/><stop stop-opacity="1" stop-color="rgb(77.80304%, 77.80304%, 77.80304%)" offset="0.933594"/><stop stop-opacity="1" stop-color="rgb(78.471375%, 78.471375%, 78.471375%)" offset="0.9375"/><stop stop-opacity="1" stop-color="rgb(79.139709%, 79.139709%, 79.139709%)" offset="0.941406"/><stop stop-opacity="1" stop-color="rgb(79.808044%, 79.808044%, 79.808044%)" offset="0.945313"/><stop stop-opacity="1" stop-color="rgb(80.476379%, 80.476379%, 80.476379%)" offset="0.949219"/><stop stop-opacity="1" stop-color="rgb(81.144714%, 81.144714%, 81.144714%)" offset="0.953125"/><stop stop-opacity="1" stop-color="rgb(81.813049%, 81.813049%, 81.813049%)" offset="0.957031"/><stop stop-opacity="1" stop-color="rgb(82.48291%, 82.48291%, 82.48291%)" offset="0.960938"/><stop stop-opacity="1" stop-color="rgb(83.151245%, 83.151245%, 83.151245%)" offset="0.964844"/><stop stop-opacity="1" stop-color="rgb(83.81958%, 83.81958%, 83.81958%)" offset="0.96875"/><stop stop-opacity="1" stop-color="rgb(84.487915%, 84.487915%, 84.487915%)" offset="0.972656"/><stop stop-opacity="1" stop-color="rgb(85.15625%, 85.15625%, 85.15625%)" offset="0.976562"/><stop stop-opacity="1" stop-color="rgb(85.824585%, 85.824585%, 85.824585%)" offset="0.980469"/><stop stop-opacity="1" stop-color="rgb(86.49292%, 86.49292%, 86.49292%)" offset="0.984375"/><stop stop-opacity="1" stop-color="rgb(87.161255%, 87.161255%, 87.161255%)" offset="0.988281"/><stop stop-opacity="1" stop-color="rgb(87.82959%, 87.82959%, 87.82959%)" offset="0.992188"/><stop stop-opacity="1" stop-color="rgb(88.497925%, 88.497925%, 88.497925%)" offset="0.996094"/><stop stop-opacity="1" stop-color="rgb(89.16626%, 89.16626%, 89.16626%)" offset="1"/></linearGradient><clipPath id="id4"><path d="M 136 159 L 205 159 L 205 191 L 136 191 Z M 136 159 " clip-rule="nonzero"/></clipPath><clipPath id="id5"><path d="M 187.617188 180.878906 L 176.992188 180.878906 L 176.992188 185.734375 C 163.378906 190.796875 149.351562 191.78125 136.746094 189.214844 L 137.066406 188.496094 L 138.582031 185.097656 L 137.84375 185.464844 L 138.519531 183.953125 L 172.167969 167.226562 L 173.617188 163.789062 L 172.167969 167.226562 L 187.550781 159.578125 C 187.707031 159.5 187.878906 159.507812 188.019531 159.578125 L 204.921875 167.976562 C 199.972656 172.910156 194.167969 177.289062 187.617188 180.875 Z M 187.617188 180.878906 " clip-rule="evenodd"/></clipPath><linearGradient x1="601.480271" gradientTransform="matrix(0.052251, 0, 0, 0.0522027, 120.454706, 95.153808)" y1="1039.893407" x2="1286.990561" gradientUnits="userSpaceOnUse" y2="2070.275181" id="id6"><stop stop-opacity="1" stop-color="rgb(45.498657%, 33.299255%, 26.298523%)" offset="0"/><stop stop-opacity="1" stop-color="rgb(45.498657%, 33.299255%, 26.298523%)" offset="0.25"/><stop stop-opacity="1" stop-color="rgb(45.498657%, 33.299255%, 26.298523%)" offset="0.375"/><stop stop-opacity="1" stop-color="rgb(45.498657%, 33.299255%, 26.298523%)" offset="0.416018"/><stop stop-opacity="1" stop-color="rgb(45.498657%, 33.299255%, 26.298523%)" offset="0.4375"/><stop stop-opacity="1" stop-color="rgb(45.498657%, 33.299255%, 26.298523%)" offset="0.46875"/><stop stop-opacity="1" stop-color="rgb(45.498657%, 33.299255%, 26.298523%)" offset="0.476562"/><stop stop-opacity="1" stop-color="rgb(45.906067%, 33.796692%, 26.849365%)" offset="0.480469"/><stop stop-opacity="1" stop-color="rgb(46.313477%, 34.295654%, 27.400208%)" offset="0.484375"/><stop stop-opacity="1" stop-color="rgb(46.827698%, 34.925842%, 28.096008%)" offset="0.488281"/><stop stop-opacity="1" stop-color="rgb(47.343445%, 35.55603%, 28.793335%)" offset="0.492187"/><stop stop-opacity="1" stop-color="rgb(47.857666%, 36.186218%, 29.489136%)" offset="0.496094"/><stop stop-opacity="1" stop-color="rgb(48.373413%, 36.816406%, 30.186462%)" offset="0.5"/><stop stop-opacity="1" stop-color="rgb(48.887634%, 37.446594%, 30.882263%)" offset="0.503906"/><stop stop-opacity="1" stop-color="rgb(49.403381%, 38.076782%, 31.578064%)" offset="0.507812"/><stop stop-opacity="1" stop-color="rgb(49.917603%, 38.70697%, 32.273865%)" offset="0.511719"/><stop stop-opacity="1" stop-color="rgb(50.43335%, 39.337158%, 32.971191%)" offset="0.515625"/><stop stop-opacity="1" stop-color="rgb(50.947571%, 39.967346%, 33.666992%)" offset="0.519531"/><stop stop-opacity="1" stop-color="rgb(51.463318%, 40.59906%, 34.364319%)" offset="0.523438"/><stop stop-opacity="1" stop-color="rgb(51.977539%, 41.229248%, 35.06012%)" offset="0.527344"/><stop stop-opacity="1" stop-color="rgb(52.493286%, 41.859436%, 35.757446%)" offset="0.53125"/><stop stop-opacity="1" stop-color="rgb(53.007507%, 42.489624%, 36.453247%)" offset="0.535156"/><stop stop-opacity="1" stop-color="rgb(53.523254%, 43.119812%, 37.150574%)" offset="0.539062"/><stop stop-opacity="1" stop-color="rgb(54.037476%, 43.75%, 37.846375%)" offset="0.542969"/><stop stop-opacity="1" stop-color="rgb(54.553223%, 44.380188%, 38.542175%)" offset="0.546875"/><stop stop-opacity="1" stop-color="rgb(55.067444%, 45.010376%, 39.237976%)" offset="0.550781"/><stop stop-opacity="1" stop-color="rgb(55.583191%, 45.640564%, 39.935303%)" offset="0.554687"/><stop stop-opacity="1" stop-color="rgb(56.097412%, 46.270752%, 40.631104%)" offset="0.558594"/><stop stop-opacity="1" stop-color="rgb(56.613159%, 46.90094%, 41.32843%)" offset="0.5625"/><stop stop-opacity="1" stop-color="rgb(57.12738%, 47.531128%, 42.024231%)" offset="0.566406"/><stop stop-opacity="1" stop-color="rgb(57.643127%, 48.161316%, 42.721558%)" offset="0.570312"/><stop stop-opacity="1" stop-color="rgb(58.157349%, 48.791504%, 43.417358%)" offset="0.574219"/><stop stop-opacity="1" stop-color="rgb(58.673096%, 49.421692%, 44.114685%)" offset="0.578125"/><stop stop-opacity="1" stop-color="rgb(59.187317%, 50.05188%, 44.810486%)" offset="0.582031"/><stop stop-opacity="1" stop-color="rgb(59.703064%, 50.682068%, 45.506287%)" offset="0.585937"/><stop stop-opacity="1" stop-color="rgb(60.217285%, 51.312256%, 46.202087%)" offset="0.589844"/><stop stop-opacity="1" stop-color="rgb(60.733032%, 51.942444%, 46.899414%)" offset="0.59375"/><stop stop-opacity="1" stop-color="rgb(61.247253%, 52.572632%, 47.595215%)" offset="0.597656"/><stop stop-opacity="1" stop-color="rgb(61.763%, 53.20282%, 48.292542%)" offset="0.601562"/><stop stop-opacity="1" stop-color="rgb(62.277222%, 53.833008%, 48.988342%)" offset="0.605469"/><stop stop-opacity="1" stop-color="rgb(62.792969%, 54.464722%, 49.685669%)" offset="0.609375"/><stop stop-opacity="1" stop-color="rgb(63.30719%, 55.09491%, 50.38147%)" offset="0.613281"/><stop stop-opacity="1" stop-color="rgb(63.822937%, 55.725098%, 51.077271%)" offset="0.617187"/><stop stop-opacity="1" stop-color="rgb(64.337158%, 56.355286%, 51.773071%)" offset="0.621094"/><stop stop-opacity="1" stop-color="rgb(64.852905%, 56.985474%, 52.470398%)" offset="0.625"/><stop stop-opacity="1" stop-color="rgb(65.367126%, 57.615662%, 53.166199%)" offset="0.628906"/><stop stop-opacity="1" stop-color="rgb(65.882874%, 58.24585%, 53.863525%)" offset="0.632812"/><stop stop-opacity="1" stop-color="rgb(66.397095%, 58.876038%, 54.559326%)" offset="0.636719"/><stop stop-opacity="1" stop-color="rgb(66.912842%, 59.506226%, 55.256653%)" offset="0.640625"/><stop stop-opacity="1" stop-color="rgb(67.427063%, 60.136414%, 55.952454%)" offset="0.644531"/><stop stop-opacity="1" stop-color="rgb(67.94281%, 60.766602%, 56.64978%)" offset="0.648438"/><stop stop-opacity="1" stop-color="rgb(68.457031%, 61.39679%, 57.345581%)" offset="0.652344"/><stop stop-opacity="1" stop-color="rgb(68.972778%, 62.026978%, 58.041382%)" offset="0.65625"/><stop stop-opacity="1" stop-color="rgb(69.487%, 62.657166%, 58.737183%)" offset="0.660156"/><stop stop-opacity="1" stop-color="rgb(70.002747%, 63.287354%, 59.434509%)" offset="0.664062"/><stop stop-opacity="1" stop-color="rgb(70.516968%, 63.917542%, 60.13031%)" offset="0.667969"/><stop stop-opacity="1" stop-color="rgb(71.032715%, 64.547729%, 60.827637%)" offset="0.671875"/><stop stop-opacity="1" stop-color="rgb(71.546936%, 65.177917%, 61.523438%)" offset="0.675781"/><stop stop-opacity="1" stop-color="rgb(72.062683%, 65.808105%, 62.220764%)" offset="0.679688"/><stop stop-opacity="1" stop-color="rgb(72.576904%, 66.438293%, 62.916565%)" offset="0.683594"/><stop stop-opacity="1" stop-color="rgb(73.092651%, 67.068481%, 63.612366%)" offset="0.6875"/><stop stop-opacity="1" stop-color="rgb(73.606873%, 67.698669%, 64.308167%)" offset="0.691406"/><stop stop-opacity="1" stop-color="rgb(74.12262%, 68.328857%, 65.005493%)" offset="0.695312"/><stop stop-opacity="1" stop-color="rgb(74.636841%, 68.959045%, 65.701294%)" offset="0.699219"/><stop stop-opacity="1" stop-color="rgb(75.152588%, 69.590759%, 66.398621%)" offset="0.703125"/><stop stop-opacity="1" stop-color="rgb(75.666809%, 70.220947%, 67.094421%)" offset="0.707031"/><stop stop-opacity="1" stop-color="rgb(76.182556%, 70.851135%, 67.791748%)" offset="0.710938"/><stop stop-opacity="1" stop-color="rgb(76.696777%, 71.481323%, 68.487549%)" offset="0.714844"/><stop stop-opacity="1" stop-color="rgb(77.212524%, 72.111511%, 69.184875%)" offset="0.71875"/><stop stop-opacity="1" stop-color="rgb(77.726746%, 72.741699%, 69.880676%)" offset="0.722656"/><stop stop-opacity="1" stop-color="rgb(78.242493%, 73.371887%, 70.576477%)" offset="0.726562"/><stop stop-opacity="1" stop-color="rgb(78.756714%, 74.002075%, 71.272278%)" offset="0.730469"/><stop stop-opacity="1" stop-color="rgb(79.272461%, 74.632263%, 71.969604%)" offset="0.734375"/><stop stop-opacity="1" stop-color="rgb(79.786682%, 75.262451%, 72.665405%)" offset="0.738281"/><stop stop-opacity="1" stop-color="rgb(80.302429%, 75.892639%, 73.362732%)" offset="0.742188"/><stop stop-opacity="1" stop-color="rgb(80.81665%, 76.522827%, 74.058533%)" offset="0.746094"/><stop stop-opacity="1" stop-color="rgb(81.332397%, 77.153015%, 74.755859%)" offset="0.75"/><stop stop-opacity="1" stop-color="rgb(81.846619%, 77.783203%, 75.45166%)" offset="0.753906"/><stop stop-opacity="1" stop-color="rgb(82.362366%, 78.413391%, 76.148987%)" offset="0.757812"/><stop stop-opacity="1" stop-color="rgb(82.876587%, 79.043579%, 76.844788%)" offset="0.761719"/><stop stop-opacity="1" stop-color="rgb(83.392334%, 79.673767%, 77.540588%)" offset="0.765625"/><stop stop-opacity="1" stop-color="rgb(83.906555%, 80.303955%, 78.236389%)" offset="0.769531"/><stop stop-opacity="1" stop-color="rgb(84.422302%, 80.934143%, 78.933716%)" offset="0.773438"/><stop stop-opacity="1" stop-color="rgb(84.936523%, 81.564331%, 79.629517%)" offset="0.777344"/><stop stop-opacity="1" stop-color="rgb(85.452271%, 82.194519%, 80.326843%)" offset="0.78125"/><stop stop-opacity="1" stop-color="rgb(85.966492%, 82.824707%, 81.022644%)" offset="0.785156"/><stop stop-opacity="1" stop-color="rgb(86.482239%, 83.454895%, 81.719971%)" offset="0.789062"/><stop stop-opacity="1" stop-color="rgb(86.99646%, 84.085083%, 82.415771%)" offset="0.792969"/><stop stop-opacity="1" stop-color="rgb(87.512207%, 84.716797%, 83.111572%)" offset="0.796875"/><stop stop-opacity="1" stop-color="rgb(88.026428%, 85.346985%, 83.807373%)" offset="0.800781"/><stop stop-opacity="1" stop-color="rgb(88.542175%, 85.977173%, 84.5047%)" offset="0.804687"/><stop stop-opacity="1" stop-color="rgb(89.056396%, 86.607361%, 85.2005%)" offset="0.808594"/><stop stop-opacity="1" stop-color="rgb(89.572144%, 87.237549%, 85.897827%)" offset="0.8125"/><stop stop-opacity="1" stop-color="rgb(90.086365%, 87.867737%, 86.593628%)" offset="0.816406"/><stop stop-opacity="1" stop-color="rgb(90.602112%, 88.497925%, 87.290955%)" offset="0.820312"/><stop stop-opacity="1" stop-color="rgb(91.116333%, 89.128113%, 87.986755%)" offset="0.824219"/><stop stop-opacity="1" stop-color="rgb(91.63208%, 89.758301%, 88.684082%)" offset="0.828125"/><stop stop-opacity="1" stop-color="rgb(92.146301%, 90.388489%, 89.379883%)" offset="0.832031"/><stop stop-opacity="1" stop-color="rgb(92.660522%, 91.018677%, 90.075684%)" offset="0.835937"/><stop stop-opacity="1" stop-color="rgb(93.174744%, 91.648865%, 90.771484%)" offset="0.839844"/><stop stop-opacity="1" stop-color="rgb(93.690491%, 92.279053%, 91.468811%)" offset="0.84375"/><stop stop-opacity="1" stop-color="rgb(94.204712%, 92.909241%, 92.164612%)" offset="0.847656"/><stop stop-opacity="1" stop-color="rgb(94.720459%, 93.539429%, 92.861938%)" offset="0.851562"/><stop stop-opacity="1" stop-color="rgb(95.23468%, 94.169617%, 93.557739%)" offset="0.855469"/><stop stop-opacity="1" stop-color="rgb(95.750427%, 94.799805%, 94.255066%)" offset="0.859375"/><stop stop-opacity="1" stop-color="rgb(96.264648%, 95.429993%, 94.950867%)" offset="0.863281"/><stop stop-opacity="1" stop-color="rgb(96.780396%, 96.060181%, 95.646667%)" offset="0.867187"/><stop stop-opacity="1" stop-color="rgb(97.294617%, 96.690369%, 96.342468%)" offset="0.871094"/><stop stop-opacity="1" stop-color="rgb(97.810364%, 97.320557%, 97.039795%)" offset="0.875"/><stop stop-opacity="1" stop-color="rgb(98.324585%, 97.950745%, 97.735596%)" offset="0.878906"/><stop stop-opacity="1" stop-color="rgb(98.840332%, 98.582458%, 98.432922%)" offset="0.882812"/><stop stop-opacity="1" stop-color="rgb(99.354553%, 99.212646%, 99.128723%)" offset="0.886719"/><stop stop-opacity="1" stop-color="rgb(99.8703%, 99.842834%, 99.82605%)" offset="0.890625"/><stop stop-opacity="1" stop-color="rgb(99.934387%, 99.920654%, 99.913025%)" offset="0.90625"/><stop stop-opacity="1" stop-color="rgb(100%, 100%, 100%)" offset="0.9375"/><stop stop-opacity="1" stop-color="rgb(100%, 100%, 100%)" offset="1"/></linearGradient><clipPath id="id7"><path d="M 120.453125 95.144531 L 254.703125 95.144531 L 254.703125 212.894531 L 120.453125 212.894531 Z M 120.453125 95.144531 " clip-rule="nonzero"/></clipPath></defs><path fill="#745543" d="M 244.085938 205.546875 L 198.582031 205.546875 L 198.582031 180.878906 L 176.992188 180.878906 L 176.992188 205.546875 L 129.460938 205.546875 L 130.285156 203.691406 L 137.066406 188.5 L 138.582031 185.097656 L 137.84375 185.464844 L 138.519531 183.953125 L 172.167969 167.226562 L 173.617188 163.789062 L 172.167969 167.226562 L 187.550781 159.578125 C 187.707031 159.5 187.878906 159.507812 188.019531 159.578125 L 236.277344 183.566406 L 235.933594 182.800781 L 236.277344 183.566406 L 236.492188 183.671875 L 237.179688 185.191406 L 236.953125 185.078125 L 238.476562 188.480469 L 237.976562 188.234375 L 236.457031 184.832031 L 236.953125 185.078125 L 245.285156 203.691406 L 246.113281 205.546875 Z M 244.085938 205.546875 " fill-opacity="1" fill-rule="evenodd"/><path fill="#ffffff" d="M 176.410156 157.058594 L 175.417969 159.445312 L 174.039062 162.777344 L 173.617188 163.789062 Z M 141.976562 177.496094 L 141.273438 179.066406 L 140.640625 180.488281 L 141.972656 177.496094 Z M 149.332031 172.414062 L 175.417969 159.445312 Z M 233.332031 176.984375 L 234.253906 179.039062 Z M 199.609375 159.175781 L 197.554688 154.21875 L 197.382812 153.796875 L 187.570312 130.132812 L 177.09375 155.40625 L 150.867188 168.445312 L 144.628906 171.542969 L 175.039062 103.378906 L 175.386719 102.597656 L 200.039062 102.597656 L 200.390625 103.378906 L 230.882812 171.511719 L 226.890625 169.527344 L 210.703125 161.480469 L 197.9375 155.136719 Z M 199.609375 159.175781 " fill-opacity="1" fill-rule="evenodd"/><g clip-path="url(#id1)"><g clip-path="url(#id2)"><path fill="url(#id3)" d="M 140.640625 102.597656 L 140.640625 180.488281 L 219.652344 180.488281 L 219.652344 102.597656 Z M 140.640625 102.597656 " fill-rule="nonzero"/></g></g><g clip-path="url(#id4)"><g clip-path="url(#id5)"><path fill="url(#id6)" d="M 136.746094 159.5 L 136.746094 191.78125 L 204.921875 191.78125 L 204.921875 159.5 Z M 136.746094 159.5 " fill-rule="nonzero"/></g></g><path fill="#2b0607" d="M 243.964844 180.046875 L 245.933594 181.027344 Z M 243.964844 180.046875 " fill-opacity="1" fill-rule="evenodd"/><g clip-path="url(#id7)"><path fill="#ffffff" d="M 176.992188 180.878906 C 176.992188 180.585938 177.226562 180.351562 177.519531 180.351562 C 177.808594 180.351562 178.046875 180.585938 178.046875 180.878906 L 178.046875 212.355469 C 178.046875 212.648438 177.808594 212.882812 177.519531 212.882812 C 177.226562 212.882812 176.992188 212.648438 176.992188 212.355469 L 176.992188 206.074219 L 129.800781 206.074219 L 126.902344 212.570312 C 126.785156 212.835938 126.472656 212.953125 126.207031 212.835938 C 125.941406 212.71875 125.824219 212.40625 125.941406 212.140625 L 128.648438 206.074219 L 120.980469 206.074219 C 120.691406 206.074219 120.453125 205.835938 120.453125 205.546875 C 120.453125 205.253906 120.691406 205.019531 120.980469 205.019531 L 129.121094 205.019531 L 138.941406 183.003906 L 139.714844 182.601562 C 139.96875 182.726562 140.082031 183.027344 139.964844 183.289062 L 130.269531 205.019531 L 176.988281 205.019531 L 176.988281 180.878906 Z M 168.289062 184.785156 L 162.703125 184.785156 L 162.703125 190.367188 L 168.289062 190.367188 Z M 162.175781 183.730469 L 169.34375 183.730469 L 169.34375 191.421875 L 161.648438 191.421875 L 161.648438 183.730469 Z M 168.289062 193.828125 L 162.703125 193.828125 L 162.703125 199.40625 L 168.289062 199.40625 Z M 162.175781 192.773438 L 169.34375 192.773438 L 169.34375 200.460938 L 161.648438 200.460938 L 161.648438 192.773438 Z M 159.074219 193.828125 L 153.488281 193.828125 L 153.488281 199.40625 L 159.074219 199.40625 Z M 152.960938 192.773438 L 160.128906 192.773438 L 160.128906 200.460938 L 152.433594 200.460938 L 152.433594 192.773438 Z M 159.074219 184.785156 L 153.488281 184.785156 L 153.488281 190.367188 L 159.074219 190.367188 Z M 152.960938 183.730469 L 160.128906 183.730469 L 160.128906 191.421875 L 152.433594 191.421875 L 152.433594 183.730469 Z M 235.003906 182.878906 C 234.886719 182.613281 235.003906 182.300781 235.269531 182.183594 C 235.535156 182.066406 235.84375 182.183594 235.964844 182.449219 L 246.039062 205.019531 L 254.175781 205.019531 C 254.46875 205.019531 254.703125 205.253906 254.703125 205.546875 C 254.703125 205.835938 254.46875 206.070312 254.175781 206.070312 L 246.507812 206.070312 L 249.21875 212.140625 C 249.335938 212.40625 249.21875 212.714844 248.953125 212.835938 C 248.6875 212.953125 248.378906 212.835938 248.257812 212.570312 L 245.359375 206.070312 L 199.039062 206.070312 L 199.039062 212.355469 C 199.039062 212.644531 198.804688 212.882812 198.511719 212.882812 C 198.222656 212.882812 197.984375 212.644531 197.984375 212.355469 L 197.984375 180.875 C 197.984375 180.585938 198.222656 180.351562 198.511719 180.351562 C 198.804688 180.351562 199.039062 180.585938 199.039062 180.875 L 199.039062 205.019531 L 244.886719 205.019531 Z M 196.113281 95.890625 C 195.996094 95.628906 196.113281 95.316406 196.378906 95.199219 C 196.644531 95.082031 196.957031 95.203125 197.074219 95.464844 C 197.328125 96.035156 198.519531 98.710938 200.320312 102.746094 L 209.167969 102.746094 C 209.457031 102.746094 209.695312 102.984375 209.695312 103.273438 C 209.695312 103.566406 209.457031 103.804688 209.167969 103.804688 L 200.792969 103.804688 C 208.328125 120.695312 224.988281 158.035156 230.359375 170.074219 L 230.378906 170.085938 L 231.0625 171.601562 L 231.035156 171.585938 L 231.035156 171.589844 L 229.554688 170.851562 L 229.550781 170.851562 L 187.785156 150.089844 L 145.371094 171.175781 L 143.890625 171.910156 L 134.089844 176.78125 C 133.832031 176.914062 133.515625 176.804688 133.382812 176.546875 C 133.253906 176.285156 133.359375 175.96875 133.621094 175.839844 L 144.566406 170.398438 C 150.539062 157.007812 166.851562 120.445312 174.273438 103.804688 L 165.726562 103.804688 C 165.433594 103.804688 165.199219 103.566406 165.199219 103.273438 C 165.199219 102.984375 165.433594 102.746094 165.726562 102.746094 L 174.746094 102.746094 C 176.546875 98.710938 177.738281 96.039062 177.992188 95.464844 C 178.113281 95.203125 178.421875 95.082031 178.6875 95.199219 C 178.953125 95.316406 179.070312 95.628906 178.953125 95.890625 L 175.898438 102.746094 L 199.171875 102.746094 C 197.476562 98.949219 196.359375 96.441406 196.113281 95.890625 Z M 228.878906 169.339844 C 222.96875 156.09375 206.859375 119.980469 199.640625 103.804688 L 175.425781 103.804688 C 168.292969 119.789062 152.449219 155.3125 146.042969 169.664062 L 187.550781 149.03125 C 187.707031 148.953125 187.878906 148.960938 188.023438 149.03125 Z M 228.878906 169.339844 " fill-opacity="1" fill-rule="evenodd"/></g><path fill="#ffffff" d="M 244.832031 187.863281 C 245.089844 187.992188 245.40625 187.886719 245.539062 187.625 C 245.664062 187.367188 245.558594 187.050781 245.300781 186.917969 L 188.011719 158.464844 C 187.855469 158.386719 187.683594 158.394531 187.542969 158.464844 L 139.070312 182.714844 L 138.398438 184.226562 L 187.777344 159.523438 Z M 244.832031 187.863281 " fill-opacity="1" fill-rule="evenodd"/><path fill="#ffffff" d="M 177.652344 180.351562 L 198.582031 180.351562 L 198.582031 181.40625 L 177.652344 181.40625 Z M 177.652344 180.351562 " fill-opacity="1" fill-rule="evenodd"/><path fill="#ffffff" d="M 162.175781 199.933594 L 168.816406 199.933594 L 168.816406 193.300781 L 162.175781 193.300781 Z M 162.175781 190.894531 L 168.816406 190.894531 L 168.816406 184.257812 L 162.175781 184.257812 Z M 152.957031 190.894531 L 159.601562 190.894531 L 159.601562 184.257812 L 152.957031 184.257812 Z M 152.957031 199.933594 L 159.601562 199.933594 L 159.601562 193.300781 L 152.957031 193.300781 Z M 152.957031 199.933594 " fill-opacity="1" fill-rule="evenodd"/><g fill="#2b0607" fill-opacity="1"><g transform="translate(60.163049, 247.570222)"><g><path d="M 18.929688 -12.472656 C 18.835938 -12.601562 17.953125 -13.828125 17.765625 -14.617188 C 17.640625 -15.121094 16.789062 -17.734375 15.71875 -17.734375 C 15.246094 -17.988281 14.710938 -18.019531 14.238281 -18.019531 L 14.175781 -18.019531 C 13.921875 -18.113281 13.703125 -18.144531 13.480469 -18.207031 C 13.039062 -18.207031 12.882812 -17.640625 12.664062 -17.074219 C 12.757812 -17.074219 12.757812 -17.011719 12.820312 -17.011719 C 12.347656 -16.285156 12.441406 -16.128906 11.75 -14.710938 L 9.703125 -8.566406 C 9.199219 -8.945312 8.976562 -10.617188 8.472656 -12.472656 C 8.128906 -13.105469 7.75 -14.332031 7.65625 -14.929688 C 7.65625 -14.960938 7.6875 -14.960938 7.6875 -15.027344 L 7.589844 -15.433594 C 7.277344 -16.632812 7.277344 -17.167969 6.140625 -19.152344 L 5.261719 -20.695312 C 5.199219 -20.851562 5.070312 -21.011719 4.976562 -21.199219 L 4.789062 -21.386719 C 4.503906 -21.828125 4.03125 -22.300781 3.71875 -22.300781 C 3.371094 -22.300781 3.085938 -21.957031 2.742188 -21.957031 C 2.394531 -22.363281 2.046875 -22.742188 1.734375 -22.742188 C 1.636719 -22.710938 1.605469 -22.585938 1.605469 -22.429688 C 1.605469 -22.269531 1.765625 -22.332031 1.765625 -22.300781 C 1.765625 -22.300781 1.734375 -22.300781 1.699219 -22.269531 L 1.574219 -21.765625 C 1.574219 -21.671875 1.132812 -21.609375 1.007812 -21.292969 C 0.914062 -20.914062 0.628906 -20.757812 0.628906 -20.539062 C 0.722656 -19.058594 4.660156 -7.558594 5.164062 -6.078125 C 5.324219 -5.605469 5.542969 -5.230469 5.542969 -4.851562 L 5.542969 -4.726562 C 5.859375 -3.9375 6.394531 -2.710938 6.742188 -1.511719 C 6.929688 -0.882812 7.214844 0.1875 7.90625 0.1875 C 7.96875 0.1875 8.0625 0.15625 8.128906 0.09375 L 8.253906 0.09375 C 8.316406 0.15625 8.378906 0.15625 8.472656 0.15625 C 8.757812 0.125 9.039062 -0.1875 9.292969 -0.285156 C 9.574219 -0.285156 9.859375 -0.15625 10.144531 -0.15625 C 10.238281 -0.15625 10.300781 -0.15625 10.394531 -0.285156 L 10.519531 -0.285156 C 10.804688 -0.285156 11.214844 -0.15625 11.496094 -0.15625 C 11.625 -0.15625 11.625 -0.253906 11.71875 -0.285156 L 12 -0.566406 C 12.03125 -0.566406 12.066406 -0.535156 12.128906 -0.472656 C 12.222656 -0.628906 12.285156 -0.722656 12.410156 -0.722656 C 12.472656 -0.722656 12.503906 -0.660156 12.503906 -0.660156 C 12.632812 -0.789062 12.632812 -0.882812 12.726562 -0.976562 L 12.726562 -1.195312 C 12.503906 -1.292969 12.503906 -1.417969 12.503906 -1.511719 L 12.503906 -1.765625 C 12.441406 -1.984375 12.441406 -2.078125 12.441406 -2.203125 C 12.503906 -2.332031 12.570312 -2.519531 12.601562 -2.710938 L 12.789062 -3.621094 C 12.789062 -5.101562 13.355469 -7.152344 13.355469 -9.070312 C 13.386719 -9.734375 13.640625 -10.960938 13.703125 -11.625 L 13.765625 -12.191406 C 13.828125 -12.664062 14.050781 -13.386719 14.238281 -13.546875 C 14.648438 -13.261719 15.75 -10.144531 16.539062 -7.96875 C 17.261719 -6.457031 17.765625 -4.789062 18.269531 -3.78125 L 18.363281 -3.683594 C 18.835938 -2.046875 20.097656 0.0625 21.734375 0.285156 C 22.332031 0.125 22.554688 0.285156 23.40625 -0.566406 C 24.222656 -1.636719 24.347656 -3.71875 24.507812 -4.726562 C 24.601562 -5.261719 24.664062 -5.859375 24.820312 -6.488281 L 24.917969 -7.152344 C 25.105469 -7.433594 25.136719 -8.222656 25.199219 -8.503906 C 25.199219 -8.597656 25.105469 -8.664062 25.042969 -8.726562 C 25.042969 -9.007812 25.324219 -9.386719 25.324219 -9.765625 C 25.324219 -9.859375 25.292969 -9.953125 25.261719 -10.015625 C 25.261719 -10.207031 25.359375 -10.332031 25.359375 -10.550781 C 25.359375 -10.617188 25.359375 -10.710938 25.324219 -10.773438 C 25.324219 -10.929688 25.390625 -11.054688 25.421875 -11.214844 L 25.515625 -11.65625 C 25.578125 -12 25.703125 -12.347656 25.734375 -12.503906 C 25.734375 -12.347656 25.734375 -12.253906 25.640625 -12.128906 L 25.640625 -11.75 L 25.734375 -11.75 L 25.828125 -12.160156 C 25.925781 -12.632812 26.050781 -13.511719 26.335938 -14.144531 L 26.335938 -14.238281 C 26.300781 -14.332031 26.300781 -14.425781 26.300781 -14.488281 C 26.300781 -14.648438 26.367188 -14.804688 26.367188 -14.960938 L 26.585938 -15.65625 C 26.617188 -15.625 26.710938 -15.277344 26.710938 -15.246094 C 26.710938 -15.183594 26.679688 -15.121094 26.679688 -15.058594 C 26.773438 -15.058594 26.773438 -15.121094 26.773438 -15.121094 L 27.058594 -16.066406 C 27.214844 -16.441406 27.65625 -18.082031 27.65625 -18.394531 C 27.65625 -18.363281 27.71875 -18.332031 27.71875 -18.300781 C 27.71875 -18.394531 27.78125 -18.617188 27.941406 -18.773438 C 27.910156 -18.835938 27.878906 -18.929688 27.878906 -18.964844 C 27.878906 -19.214844 28.160156 -20.097656 28.253906 -20.632812 C 28.191406 -21.042969 28.097656 -21.355469 27.941406 -21.355469 C 27.71875 -21.355469 27.5625 -21.042969 27.4375 -20.914062 C 27.089844 -20.914062 26.902344 -21.167969 26.617188 -21.167969 L 26.492188 -21.167969 C 26.269531 -21.355469 26.238281 -21.421875 26.082031 -21.640625 C 26.019531 -21.671875 25.828125 -21.765625 25.734375 -21.859375 C 25.640625 -21.828125 25.578125 -21.828125 25.515625 -21.828125 C 25.359375 -21.828125 25.390625 -21.859375 25.292969 -21.859375 C 25.167969 -21.859375 25.011719 -21.734375 24.949219 -21.734375 L 24.917969 -21.734375 L 24.917969 -21.925781 C 25.042969 -21.988281 25.136719 -21.988281 25.136719 -22.050781 C 25.199219 -22.113281 24.789062 -22.269531 24.789062 -22.429688 L 24.695312 -22.429688 C 24.632812 -22.429688 24.570312 -22.460938 24.507812 -22.460938 C 24.476562 -22.460938 24.445312 -22.460938 24.382812 -22.429688 C 24.191406 -22.429688 24.191406 -22.429688 24.097656 -22.617188 C 24.035156 -22.523438 23.941406 -22.429688 23.941406 -22.269531 C 23.941406 -22.238281 23.972656 -22.175781 24.003906 -22.113281 C 24.003906 -21.925781 23.910156 -21.734375 23.8125 -21.515625 L 23.8125 -21.199219 C 23.65625 -20.664062 23.4375 -19.972656 23.308594 -19.308594 L 22.804688 -16.945312 C 22.492188 -15.78125 22.429688 -14.617188 22.113281 -13.734375 C 22.113281 -13.828125 22.019531 -13.828125 22.019531 -13.828125 C 21.640625 -12.03125 21.230469 -9.765625 20.851562 -8.253906 C 20.851562 -8.0625 20.820312 -7.90625 20.757812 -7.75 C 20.570312 -7.8125 20.316406 -9.261719 19.75 -11.121094 L 19.65625 -11.65625 C 19.53125 -12.820312 19.5 -13.984375 19.339844 -15.308594 C 19.121094 -14.394531 19.027344 -13.386719 18.929688 -12.472656 Z M 18.929688 -12.472656 "/></g></g></g><g fill="#2b0607" fill-opacity="1"><g transform="translate(101.239084, 247.570222)"><g><path d="M 17.640625 -20.476562 C 17.578125 -20.601562 17.417969 -21.421875 17.417969 -21.421875 L 16.441406 -22.175781 C 16.441406 -22.175781 16.253906 -21.988281 16.160156 -21.765625 C 15.246094 -22.523438 15.75 -22.144531 15.464844 -21.703125 C 14.207031 -21.421875 14.082031 -18.648438 14.082031 -17.890625 C 14.082031 -17.796875 14.113281 -17.515625 14.113281 -17.355469 C 14.113281 -17.230469 14.144531 -17.042969 14.175781 -16.945312 L 14.175781 -16.128906 C 14.144531 -15.277344 14.082031 -14.554688 14.015625 -13.828125 C 14.015625 -13.703125 13.984375 -13.449219 13.953125 -13.292969 C 13.890625 -12.789062 13.890625 -12.128906 13.859375 -11.59375 L 13.640625 -10.269531 C 13.261719 -7.464844 13.039062 -3.96875 9.984375 -3.558594 L 9.953125 -3.558594 L 9.953125 -3.589844 C 9.609375 -3.75 9.355469 -3.8125 9.292969 -3.875 L 8.851562 -4.535156 L 8.851562 -4.503906 L 8.535156 -5.007812 L 8.535156 -4.976562 L 8.128906 -5.636719 C 7.65625 -6.457031 7.371094 -7.246094 7.183594 -8.347656 L 7.054688 -9.039062 L 6.960938 -9.859375 L 6.742188 -11.054688 L 6.679688 -11.65625 C 6.582031 -12.347656 6.519531 -12.914062 6.519531 -13.449219 L 6.519531 -16.945312 C 6.519531 -16.976562 6.550781 -17.042969 6.550781 -17.136719 L 6.550781 -17.671875 C 6.613281 -19.214844 6.332031 -19.152344 6.363281 -19.71875 L 6.425781 -20.789062 C 6.457031 -21.199219 6.238281 -20.820312 6.015625 -21.136719 C 5.984375 -21.609375 5.734375 -21.988281 5.039062 -22.207031 C 4.851562 -22.207031 4.660156 -22.144531 4.472656 -22.082031 C 4.347656 -22.175781 4.378906 -22.113281 4.410156 -22.082031 L 4.285156 -22.019531 C 4.03125 -22.050781 3.8125 -22.019531 3.652344 -22.019531 L 2.644531 -21.890625 C 2.644531 -21.890625 2.425781 -21.105469 2.457031 -21.167969 C 2.332031 -20.914062 2.078125 -20.476562 2.078125 -19.875 L 2.078125 -19.371094 L 2.015625 -17.386719 L 2.015625 -16.851562 C 1.984375 -16.410156 1.953125 -15.9375 1.953125 -15.464844 L 1.953125 -15.277344 C 1.921875 -14.648438 1.890625 -14.082031 1.890625 -13.578125 C 1.890625 -12.976562 1.921875 -12.410156 1.984375 -11.90625 L 2.046875 -11.121094 C 2.171875 -10.488281 2.300781 -9.765625 2.332031 -9.167969 C 2.613281 -7.371094 2.898438 -6.109375 3.496094 -4.410156 C 4.441406 -1.984375 5.828125 0.09375 8.632812 1.070312 L 8.820312 1.070312 C 9.007812 1.101562 9.292969 1.132812 9.796875 1.132812 C 15.9375 1.132812 16.695312 -5.292969 17.292969 -10.015625 L 17.449219 -11.246094 L 17.578125 -13.417969 C 17.640625 -14.269531 17.703125 -15.214844 17.734375 -16.191406 L 17.734375 -16.820312 Z M 17.640625 -20.476562 "/></g></g></g><g fill="#2b0607" fill-opacity="1"><g transform="translate(133.054104, 247.570222)"><g><path d="M 2.046875 -15.246094 L 2.046875 -11.402344 C 2.015625 -11.371094 2.015625 -11.308594 1.984375 -11.246094 L 1.890625 -11.089844 C 2.015625 -11.023438 2.046875 -10.867188 2.046875 -10.742188 C 2.046875 -10.488281 1.921875 -10.269531 1.921875 -10.015625 C 1.921875 -9.984375 1.921875 -9.921875 1.984375 -9.921875 L 2.078125 -9.386719 C 2.078125 -9.007812 1.953125 -8.632812 1.953125 -8.253906 C 1.984375 -7.65625 2.015625 -6.992188 2.109375 -6.425781 C 2.109375 -6.269531 2.078125 -6.046875 2.078125 -5.890625 C 2.109375 -5.292969 2.203125 -4.628906 2.238281 -4.03125 L 2.203125 -3.90625 L 2.300781 -2.960938 C 2.394531 -2.078125 2.550781 -0.820312 2.613281 0.253906 L 2.804688 1.164062 L 2.898438 1.164062 C 2.960938 1.226562 3.246094 1.890625 3.433594 1.984375 C 3.527344 1.953125 3.652344 1.796875 3.71875 1.480469 C 3.78125 1.511719 3.84375 1.574219 3.84375 1.636719 C 3.875 1.511719 3.9375 1.480469 4 1.386719 C 4.09375 1.511719 4.222656 1.699219 4.222656 1.699219 C 4.253906 1.699219 4.285156 1.699219 4.316406 1.667969 C 4.347656 1.667969 4.378906 1.699219 4.410156 1.699219 C 4.503906 1.667969 4.597656 1.542969 4.628906 1.386719 C 4.726562 1.386719 4.820312 1.417969 4.976562 1.417969 L 4.976562 -0.914062 C 5.101562 -0.976562 5.230469 -1.164062 5.230469 -1.355469 L 6.804688 -1.480469 C 6.773438 -1.542969 6.773438 -1.574219 6.773438 -1.605469 C 6.773438 -1.699219 6.835938 -1.765625 6.898438 -1.765625 L 7.152344 -1.765625 C 7.117188 -1.828125 7.117188 -1.890625 7.117188 -1.953125 C 7.117188 -2.109375 7.152344 -2.238281 7.246094 -2.425781 C 7.183594 -2.644531 7.152344 -2.898438 7.152344 -3.179688 L 7.054688 -3.652344 C 7.054688 -3.78125 7.054688 -3.90625 7.023438 -4.03125 C 7.023438 -4.347656 7.214844 -5.671875 7.214844 -6.519531 C 7.214844 -6.929688 7.152344 -7.277344 7.117188 -7.558594 C 7.433594 -7.558594 7.75 -7.433594 8.03125 -7.433594 C 8.128906 -7.433594 8.191406 -7.433594 8.253906 -7.464844 C 8.945312 -7.402344 9.511719 -6.710938 10.046875 -6.679688 C 11.054688 -6.300781 14.363281 -1.667969 15.496094 0.03125 C 15.96875 0.503906 16.410156 1.164062 17.136719 1.574219 L 17.136719 1.417969 C 17.136719 1.355469 17.355469 1.417969 17.515625 1.324219 C 17.578125 1.324219 17.546875 1.417969 17.734375 1.449219 C 18.050781 1.542969 18.585938 1.667969 18.804688 1.667969 C 18.898438 1.667969 18.964844 1.636719 18.964844 1.542969 L 19.058594 1.195312 C 19.152344 1.132812 19.214844 1.039062 19.214844 1.007812 C 19.214844 0.976562 19.121094 0.945312 19.121094 0.882812 C 19.121094 0.757812 19.277344 0.628906 19.433594 0.410156 C 19.46875 0.472656 19.59375 0.503906 19.625 0.503906 L 19.59375 0.472656 C 19.59375 0.378906 19.71875 0.1875 19.84375 0 C 20.003906 0.09375 20.128906 0.125 20.316406 0.15625 C 20.285156 0.125 20.285156 0.09375 20.285156 0.09375 C 20.378906 0 20.445312 -0.0625 20.445312 -0.15625 C 20.316406 -0.597656 17.796875 -3.683594 16.410156 -5.542969 C 15.9375 -6.679688 14.238281 -8.285156 12.820312 -9.984375 C 14.773438 -10.015625 16.378906 -12.441406 16.945312 -13.609375 C 17.074219 -13.953125 17.136719 -14.679688 17.136719 -15.246094 L 17.136719 -16.160156 C 17.136719 -16.191406 17.230469 -16.253906 17.230469 -16.285156 C 17.230469 -16.285156 17.167969 -16.285156 17.167969 -16.316406 L 17.167969 -16.664062 C 17.167969 -16.914062 16.914062 -17.953125 16.695312 -18.460938 C 16.570312 -18.648438 15.496094 -20.445312 13.796875 -21.292969 C 12.535156 -21.925781 9.101562 -22.332031 6.394531 -22.429688 L 5.542969 -22.523438 C 5.480469 -22.554688 5.355469 -22.554688 5.199219 -22.554688 L 4.914062 -22.554688 C 4.789062 -22.554688 4.695312 -22.554688 4.695312 -22.617188 L 4.410156 -22.554688 C 4.316406 -22.492188 4.191406 -22.492188 4.09375 -22.460938 L 3.78125 -22.710938 C 3.71875 -22.679688 3.683594 -22.648438 3.652344 -22.648438 C 3.496094 -22.679688 3.433594 -22.835938 3.339844 -22.902344 C 3.023438 -22.835938 2.675781 -22.742188 2.675781 -22.523438 C 2.675781 -22.398438 2.742188 -22.269531 2.742188 -22.175781 C 2.742188 -22.144531 2.742188 -22.113281 2.710938 -22.082031 C 2.675781 -22.144531 2.613281 -22.175781 2.550781 -22.207031 C 2.550781 -21.796875 2.519531 -21.324219 2.457031 -21.011719 C 2.363281 -20.726562 2.140625 -20.695312 2.140625 -20.601562 C 2.140625 -20.507812 2.203125 -20.347656 2.203125 -20.285156 C 2.203125 -20.035156 1.921875 -19.8125 1.921875 -19.5 C 2.015625 -18.332031 2.046875 -16.757812 2.046875 -15.246094 Z M 6.742188 -13.230469 L 6.648438 -14.332031 C 6.582031 -14.710938 6.550781 -14.929688 6.550781 -15.246094 C 6.550781 -15.464844 6.582031 -15.6875 6.582031 -15.875 C 6.582031 -16.128906 6.550781 -16.410156 6.550781 -16.726562 L 6.550781 -17.292969 C 6.550781 -17.386719 6.519531 -17.515625 6.519531 -17.640625 C 6.519531 -18.332031 6.207031 -18.710938 8.410156 -18.710938 C 9.671875 -18.710938 11.84375 -18.648438 12.222656 -16.441406 L 12.222656 -16.316406 C 12.253906 -16.035156 12.316406 -15.71875 12.316406 -15.277344 C 12.316406 -13.261719 10.992188 -12.472656 9.039062 -12.472656 C 7.875 -12.472656 7.371094 -12.820312 6.804688 -12.820312 C 6.773438 -12.820312 6.742188 -13.007812 6.742188 -13.230469 Z M 6.742188 -13.230469 "/></g></g></g><g fill="#2b0607" fill-opacity="1"><g transform="translate(165.688131, 247.570222)"><g><path d="M 13.828125 -14.867188 C 13.828125 -14.960938 14.523438 -15.183594 14.523438 -15.65625 L 14.523438 -15.875 C 14.523438 -15.875 14.523438 -15.96875 14.617188 -16.097656 L 14.617188 -16.347656 L 14.742188 -16.441406 L 14.742188 -16.570312 C 15.089844 -16.914062 15.027344 -17.484375 15.027344 -17.828125 C 15.058594 -18.269531 14.929688 -18.648438 14.835938 -19.058594 L 14.648438 -19.78125 C 14.144531 -20.757812 13.417969 -21.355469 12.441406 -21.828125 C 12.160156 -21.925781 11.90625 -21.957031 11.558594 -22.113281 L 11.246094 -22.175781 C 11.152344 -22.175781 11.054688 -22.175781 10.960938 -22.207031 L 10.144531 -22.332031 C 9.828125 -22.332031 9.542969 -22.363281 9.261719 -22.492188 C 9.261719 -22.492188 9.261719 -22.332031 9.101562 -22.332031 L 8.597656 -22.332031 C 5.953125 -22.332031 2.960938 -20.316406 2.109375 -17.011719 C 2.109375 -15.75 2.140625 -15.402344 3.054688 -13.765625 C 4.945312 -11.8125 6.710938 -10.742188 8.316406 -9.703125 C 8.441406 -9.640625 8.566406 -9.511719 8.695312 -9.449219 C 10.617188 -8.0625 13.199219 -6.425781 13.199219 -4.347656 C 13.199219 -2.203125 11.65625 -1.292969 9.703125 -1.226562 C 7.339844 -1.226562 4.914062 -2.613281 5.164062 -3.339844 L 5.164062 -3.558594 C 5.164062 -3.683594 5.007812 -3.96875 4.851562 -4.03125 L 4.851562 -4.535156 C 4.695312 -4.535156 4.695312 -4.695312 4.695312 -4.695312 C 4.628906 -4.628906 4.597656 -4.566406 4.535156 -4.535156 L 4.535156 -4.378906 L 4.378906 -4.378906 C 4.378906 -4.191406 4.222656 -4.191406 4.222656 -4.191406 C 4.0625 -4.378906 4.0625 -4.378906 4.0625 -4.535156 C 3.96875 -4.535156 3.558594 -4.15625 3.558594 -4.03125 C 3.433594 -4.191406 3.558594 -4.191406 3.433594 -4.378906 C 3.433594 -4.191406 2.992188 -4.125 3.023438 -4.125 C 2.992188 -4.125 2.960938 -4.15625 2.929688 -4.191406 L 2.835938 -4.191406 C 2.613281 -4.191406 2.394531 -4.410156 2.203125 -4.566406 L 2.109375 -4.757812 C 2.078125 -4.726562 2.015625 -4.726562 1.984375 -4.726562 C 1.890625 -4.914062 1.734375 -4.976562 1.605469 -4.976562 C 1.449219 -4.820312 1.261719 -4.566406 1.261719 -4.285156 C 1.261719 -4.125 1.261719 -3.96875 1.292969 -3.8125 L 1.386719 -3.433594 C 1.574219 -2.710938 1.636719 -1.449219 2.960938 -0.1875 C 3.71875 0.21875 4.347656 0.820312 4.945312 0.945312 C 5.796875 1.699219 7.085938 1.542969 7.71875 1.734375 C 8.160156 1.734375 8.535156 1.953125 9.039062 1.953125 C 10.300781 1.953125 12.632812 1.765625 13.703125 1.132812 C 14.175781 0.851562 14.617188 0.722656 14.929688 0.472656 L 15.246094 0.21875 C 15.90625 -0.472656 16.570312 -1.039062 17.136719 -2.078125 C 17.355469 -2.078125 17.136719 -2.332031 17.484375 -2.710938 L 17.484375 -2.867188 L 17.324219 -2.867188 C 17.578125 -3.652344 17.734375 -4.441406 17.734375 -5.199219 C 17.734375 -7.308594 16.601562 -11.214844 10.394531 -13.703125 C 7.433594 -14.992188 6.078125 -15.71875 6.078125 -16.851562 C 6.457031 -18.585938 8.726562 -18.835938 8.976562 -18.867188 C 10.078125 -18.867188 10.078125 -18.492188 10.488281 -18.144531 L 10.488281 -17.671875 C 10.773438 -17.417969 11.054688 -17.734375 11.496094 -16.882812 C 11.625 -16.695312 11.96875 -15.96875 12.160156 -15.78125 C 12.632812 -15.339844 12.976562 -14.425781 13.546875 -14.425781 C 13.828125 -14.425781 13.859375 -14.679688 13.859375 -14.804688 C 13.828125 -14.804688 13.796875 -14.867188 13.796875 -14.867188 Z M 13.828125 -14.867188 "/></g></g></g><g fill="#2b0607" fill-opacity="1"><g transform="translate(196.873153, 247.570222)"><g><path d="M 0.851562 -17.953125 L 1.292969 -17.859375 C 1.511719 -17.828125 1.574219 -17.734375 1.765625 -17.640625 L 2.300781 -17.515625 L 2.582031 -17.515625 C 2.613281 -17.546875 2.644531 -17.546875 2.675781 -17.546875 C 2.835938 -17.546875 3.527344 -17.292969 3.96875 -17.230469 L 4.285156 -17.230469 C 4.566406 -17.230469 4.851562 -17.292969 5.164062 -17.292969 C 5.984375 -17.292969 7.8125 -17.261719 8.160156 -16.914062 C 8.160156 -16.820312 8.128906 -16.757812 8.128906 -16.664062 L 8.128906 -15.75 C 8.128906 -14.835938 8.0625 -13.324219 8.0625 -11.90625 L 8.0625 -10.710938 C 8.0625 -9.890625 8.191406 -9.101562 8.222656 -8.347656 L 8.222656 -8.03125 C 8.316406 -6.425781 8.535156 -4.757812 8.535156 -3.179688 C 8.597656 -3.214844 8.632812 -3.214844 8.664062 -3.214844 C 8.632812 -3.527344 8.789062 1.890625 9.703125 1.890625 C 9.796875 1.890625 9.921875 1.796875 9.953125 1.636719 C 9.953125 1.605469 9.953125 1.574219 9.921875 1.511719 L 10.015625 1.355469 C 10.113281 1.449219 10.207031 1.480469 10.300781 1.480469 C 10.425781 1.480469 10.519531 1.417969 10.648438 1.324219 C 10.679688 1.386719 10.742188 1.417969 10.804688 1.417969 C 10.898438 1.226562 11.75 0.253906 11.8125 0.03125 C 11.84375 0.03125 11.9375 0.03125 12 0.0625 L 11.875 -2.109375 C 11.875 -2.238281 12.03125 -2.300781 12.03125 -2.457031 L 12.097656 -3.875 C 12.222656 -4.789062 12.347656 -5.828125 12.347656 -6.773438 C 12.347656 -8.253906 12.222656 -10.835938 12.160156 -11.402344 L 12.160156 -11.023438 C 12.128906 -11.402344 12.128906 -11.84375 12.128906 -12.253906 C 12.128906 -12.882812 12.191406 -13.734375 12.191406 -14.175781 L 12.191406 -14.679688 C 12.191406 -15.371094 12.191406 -16.851562 12.632812 -16.789062 C 13.105469 -16.789062 13.546875 -16.789062 13.984375 -16.820312 L 14.144531 -16.820312 C 14.300781 -16.789062 14.617188 -16.789062 14.960938 -16.789062 C 16.378906 -16.789062 17.671875 -16.726562 18.867188 -17.578125 L 18.804688 -17.859375 C 19.027344 -17.890625 19.53125 -18.554688 19.71875 -18.964844 L 19.875 -19.089844 C 19.875 -19.277344 20.066406 -19.308594 20.066406 -19.371094 C 20.066406 -19.5625 19.53125 -19.71875 19.53125 -19.84375 C 19.53125 -19.875 19.59375 -19.972656 19.59375 -20.035156 C 19.59375 -20.757812 18.207031 -20.726562 17.199219 -20.789062 L 14.425781 -20.980469 C 14.300781 -20.980469 14.175781 -21.011719 14.050781 -21.011719 L 12.097656 -21.105469 C 11.183594 -21.136719 10.363281 -21.167969 10.363281 -21.324219 L 10.113281 -21.261719 C 9.890625 -21.261719 9.574219 -21.167969 9.355469 -21.167969 L 8.503906 -21.167969 C 8.253906 -21.167969 8 -21.199219 7.75 -21.199219 C 7.464844 -21.199219 7.214844 -21.167969 6.960938 -21.167969 L 5.542969 -21.167969 C 4.851562 -21.167969 4.15625 -21.261719 3.558594 -21.386719 C 3.589844 -21.261719 3.652344 -21.167969 3.652344 -21.074219 L 2.929688 -21.074219 C 2.960938 -20.949219 2.992188 -20.820312 2.992188 -20.695312 L 2.773438 -20.757812 C 2.742188 -20.757812 2.675781 -20.726562 2.675781 -20.695312 C 2.675781 -20.664062 2.710938 -20.632812 2.710938 -20.601562 L 2.804688 -20.539062 C 2.675781 -20.539062 2.644531 -20.507812 2.644531 -20.445312 L 2.929688 -20.191406 C 2.898438 -20.097656 2.488281 -20.097656 2.300781 -20.097656 C 1.953125 -20.097656 1.636719 -20.222656 1.324219 -20.222656 C 0.945312 -20.222656 0.316406 -20.222656 0.316406 -19.75 C 0.316406 -19.65625 0.945312 -18.898438 1.261719 -18.804688 C 1.132812 -18.679688 1.007812 -18.617188 0.914062 -18.492188 C 0.914062 -18.460938 0.976562 -18.394531 0.976562 -18.363281 L 0.597656 -18.113281 C 0.691406 -18.113281 0.757812 -18.019531 0.851562 -17.953125 Z M 0.851562 -17.953125 "/></g></g></g><g fill="#2b0607" fill-opacity="1"><g transform="translate(229.444181, 247.570222)"><g><path d="M 14.648438 -1.007812 L 14.710938 -0.914062 C 14.773438 -0.757812 15.058594 -0.691406 15.058594 -0.566406 L 15.214844 -0.691406 C 15.214844 -0.660156 15.246094 -0.597656 15.277344 -0.503906 C 15.371094 -0.1875 15.875 0.820312 16.695312 0.820312 C 17.484375 0.820312 17.640625 0.410156 17.671875 0.285156 L 17.734375 0.1875 L 17.796875 0.1875 C 18.050781 0.1875 18.238281 0.316406 18.742188 0.316406 C 18.710938 0.285156 18.929688 0.660156 19.308594 0.660156 C 19.5 0.660156 19.5625 0.503906 19.71875 0.347656 C 19.75 0.347656 19.8125 0.441406 19.875 0.472656 C 19.941406 0.472656 20.035156 0.441406 20.066406 0.316406 C 20.035156 0.285156 20.003906 0.21875 20.003906 0.15625 C 20.003906 0.03125 20.003906 0.03125 20.097656 0.03125 L 20.253906 -0.1875 C 20.285156 -0.285156 20.316406 -0.535156 20.316406 -0.660156 L 20.316406 -0.789062 C 20.347656 -0.882812 20.347656 -0.914062 20.347656 -0.976562 C 20.347656 -1.226562 20.191406 -1.636719 20.035156 -2.015625 C 20.035156 -2.046875 19.59375 -3.085938 18.773438 -4.660156 L 17.546875 -8.03125 C 17.074219 -8.914062 16.789062 -10.238281 16.347656 -11.277344 L 15.84375 -12.472656 C 15.371094 -13.546875 15.027344 -15.246094 14.773438 -15.65625 C 14.742188 -15.65625 14.710938 -15.625 14.679688 -15.625 C 14.617188 -16.003906 14.207031 -17.042969 13.859375 -17.546875 L 13.199219 -18.523438 C 12.316406 -19.972656 11.78125 -21.167969 10.679688 -21.703125 C 10.679688 -21.671875 10.617188 -21.640625 10.617188 -21.609375 C 10.617188 -21.796875 10.394531 -21.925781 9.984375 -21.925781 C 9.542969 -21.925781 8.945312 -21.890625 8.914062 -21.890625 L 8.789062 -21.890625 C 8.757812 -21.988281 8.664062 -22.082031 8.535156 -22.082031 C 8.128906 -22.082031 7.78125 -21.578125 7.527344 -21.324219 L 7.339844 -21.230469 C 6.898438 -20.789062 6.710938 -20.410156 6.488281 -20.035156 L 6.425781 -20.035156 C 6.238281 -19.8125 6.175781 -19.152344 5.890625 -19.027344 C 5.890625 -18.929688 5.953125 -18.867188 5.953125 -18.867188 C 5.859375 -18.617188 5.859375 -18.394531 5.765625 -18.207031 L 5.511719 -17.324219 C 4.914062 -15.058594 4.222656 -12.285156 3.527344 -9.828125 L 3.402344 -9.386719 C 2.742188 -6.742188 2.140625 -7.371094 2.046875 -6.742188 C 2.332031 -6.582031 2.269531 -6.679688 2.550781 -6.332031 L 2.457031 -6.175781 C 2.488281 -6.015625 2.488281 -5.890625 2.488281 -5.765625 C 2.238281 -5.007812 2.078125 -3.683594 1.636719 -2.519531 L 1.511719 -2.269531 C 1.511719 -2.203125 1.480469 -2.109375 1.480469 -2.046875 L 1.417969 -1.796875 C 1.101562 -1.480469 1.039062 -1.226562 0.882812 -0.976562 C 0.882812 -0.882812 0.976562 -0.789062 0.945312 -0.757812 C 0.945312 -0.660156 0.882812 -0.597656 0.882812 -0.535156 L 0.882812 -0.472656 C 0.789062 -0.410156 0.722656 -0.378906 0.628906 -0.285156 C 0.628906 -0.0625 0.882812 0.125 0.914062 0.125 L 0.851562 0.441406 C 0.945312 0.628906 1.324219 0.722656 1.417969 0.789062 C 1.574219 0.691406 2.203125 0.472656 2.203125 0.410156 L 2.363281 0.410156 C 2.550781 0.347656 3.277344 0.410156 3.339844 0.316406 C 3.371094 0.316406 3.402344 0.347656 3.464844 0.347656 C 3.464844 0.21875 3.589844 0 3.71875 -0.125 L 3.90625 -0.285156 C 4.15625 -0.410156 4.566406 -1.226562 4.597656 -1.605469 C 4.597656 -1.667969 4.566406 -1.734375 4.566406 -1.796875 L 4.566406 -2.015625 C 4.566406 -2.363281 5.070312 -3.433594 5.101562 -4.660156 C 5.070312 -4.660156 5.070312 -4.660156 5.070312 -4.695312 C 5.101562 -4.789062 5.101562 -5.230469 5.355469 -5.355469 C 5.511719 -5.355469 5.636719 -5.324219 5.796875 -5.324219 C 5.796875 -5.386719 5.859375 -5.511719 5.984375 -5.511719 C 6.015625 -5.511719 6.238281 -5.480469 6.394531 -5.480469 C 6.363281 -5.480469 6.363281 -5.449219 6.363281 -5.449219 C 6.394531 -5.449219 6.457031 -5.417969 6.519531 -5.417969 C 7.183594 -5.417969 8.191406 -5.574219 8.664062 -5.574219 L 8.945312 -5.574219 C 9.230469 -5.765625 9.574219 -5.703125 9.921875 -5.703125 C 10.113281 -5.703125 10.363281 -5.671875 10.550781 -5.636719 L 10.773438 -5.636719 C 11.152344 -5.636719 11.402344 -4.976562 11.625 -4.976562 L 11.75 -4.976562 L 11.84375 -4.851562 C 12.695312 -4 13.417969 -4.441406 13.765625 -3.085938 C 13.828125 -2.960938 14.015625 -2.613281 14.050781 -2.488281 C 14.015625 -2.488281 14.015625 -2.457031 14.015625 -2.457031 C 14.015625 -2.457031 14.015625 -2.425781 14.050781 -2.425781 L 14.175781 -2.269531 C 14.175781 -2.109375 14.554688 -1.355469 14.523438 -1.386719 Z M 11.433594 -7.558594 L 9.984375 -7.65625 C 9.136719 -7.71875 8.09375 -7.65625 7.183594 -7.84375 C 6.960938 -7.8125 6.710938 -7.78125 6.457031 -7.78125 C 6.300781 -7.84375 5.828125 -7.84375 5.828125 -7.96875 C 5.828125 -8.566406 6.648438 -10.394531 6.648438 -11.089844 C 7.152344 -12.191406 7.054688 -12.570312 8.0625 -15.214844 C 8.160156 -15.402344 8.253906 -15.65625 8.347656 -15.9375 C 8.597656 -15.339844 9.070312 -14.523438 9.449219 -13.796875 L 9.765625 -12.976562 C 10.207031 -11.71875 10.144531 -11.8125 10.835938 -9.703125 L 11.527344 -7.589844 C 11.527344 -7.589844 11.496094 -7.589844 11.433594 -7.558594 Z M 1.386719 0.820312 C 1.449219 0.820312 1.449219 0.789062 1.417969 0.789062 C 1.386719 0.789062 1.355469 0.820312 1.386719 0.820312 Z M 1.386719 0.820312 "/></g></g></g><g fill="#2b0607" fill-opacity="1"><g transform="translate(262.613688, 247.570222)"><g><path d="M 16.882812 -19.6875 C 16.632812 -20.003906 16.097656 -20.445312 15.625 -20.789062 C 14.648438 -21.421875 13.609375 -22.019531 12.285156 -22.238281 C 12.191406 -22.238281 12.128906 -22.238281 12.128906 -22.207031 L 11.71875 -22.332031 C 10.992188 -22.429688 10.207031 -22.585938 9.574219 -22.617188 C 5.417969 -22.804688 3.214844 -18.742188 2.078125 -15.59375 C 2.015625 -15.277344 1.953125 -14.929688 1.921875 -14.585938 L 1.984375 -14.742188 C 1.511719 -13.199219 1.261719 -11.65625 1.261719 -10.113281 C 1.261719 -8.851562 1.386719 -7.589844 1.734375 -6.363281 C 1.734375 -6.046875 1.796875 -5.859375 1.921875 -5.734375 C 2.269531 -5.007812 2.804688 -4.03125 3.308594 -3.214844 C 4.566406 -1.195312 6.394531 0.285156 8.664062 0.820312 C 8.664062 0.820312 8.820312 0.882812 8.976562 0.914062 C 9.199219 0.945312 9.574219 0.976562 9.859375 0.945312 C 11.152344 0.851562 11.875 0.628906 12.820312 0.15625 C 14.363281 -0.566406 15.339844 -1.828125 15.90625 -3.433594 C 16.160156 -3.90625 16.316406 -4.472656 16.316406 -4.914062 C 16.316406 -6.332031 15.246094 -7.371094 14.082031 -7.371094 C 13.074219 -7.371094 12.191406 -6.742188 11.65625 -5.292969 C 11.246094 -4.125 10.519531 -2.675781 9.921875 -2.675781 C 9.765625 -2.675781 9.542969 -2.742188 9.261719 -2.835938 L 9.292969 -2.804688 C 8.726562 -3.085938 8.160156 -3.75 7.527344 -4.410156 L 6.929688 -5.828125 C 6.457031 -6.332031 6.140625 -7.75 6.046875 -8.566406 L 5.984375 -9.101562 C 5.890625 -9.671875 5.828125 -10.175781 5.828125 -10.710938 C 5.828125 -11.246094 5.890625 -11.875 6.175781 -12.664062 L 6.394531 -13.671875 C 6.394531 -13.703125 6.394531 -13.796875 6.425781 -13.890625 L 6.425781 -13.859375 L 6.488281 -14.113281 C 6.648438 -14.554688 6.773438 -14.898438 6.835938 -14.992188 C 6.929688 -15.121094 7.023438 -15.402344 7.085938 -15.59375 C 7.183594 -15.8125 7.339844 -16.066406 7.402344 -16.316406 C 7.78125 -17.011719 8.695312 -18.019531 9.386719 -18.050781 C 9.640625 -18.019531 9.859375 -18.050781 10.078125 -18.050781 C 10.710938 -18.019531 11.464844 -17.953125 11.875 -17.734375 L 12.410156 -17.386719 L 12.347656 -17.417969 L 12.789062 -17.136719 C 12.789062 -17.105469 12.789062 -17.136719 12.882812 -16.945312 C 13.007812 -16.632812 13.230469 -16.914062 13.230469 -16.851562 C 13.074219 -16.664062 13.074219 -16.570312 13.074219 -16.410156 C 13.074219 -15.75 13.199219 -15.152344 13.921875 -14.425781 C 13.984375 -14.394531 13.984375 -14.488281 13.984375 -14.554688 L 14.015625 -14.332031 C 14.015625 -14.332031 14.050781 -14.300781 14.082031 -14.300781 L 14.015625 -14.300781 L 14.050781 -14.175781 C 14.082031 -14.082031 14.175781 -13.890625 14.332031 -13.640625 C 14.394531 -13.292969 14.554688 -13.105469 14.835938 -13.007812 C 15.183594 -12.632812 15.65625 -12.128906 16.253906 -11.527344 L 16.253906 -12.316406 L 16.316406 -12.914062 L 16.472656 -12.914062 L 16.472656 -13.734375 L 16.632812 -13.921875 C 17.105469 -13.921875 17.105469 -13.921875 17.890625 -14.710938 L 17.828125 -14.835938 C 17.988281 -15.058594 18.082031 -15.308594 18.113281 -15.402344 C 18.269531 -15.402344 18.523438 -15.53125 18.929688 -15.8125 L 18.742188 -15.9375 C 19.089844 -16.347656 19.121094 -16.976562 18.425781 -17.859375 L 17.484375 -19.058594 Z M 16.757812 -15.058594 C 16.789062 -15.058594 17.136719 -15.089844 17.515625 -15.214844 C 17.355469 -14.992188 17.105469 -14.929688 16.757812 -15.058594 Z M 13.921875 -14.425781 C 13.890625 -14.425781 13.859375 -14.457031 13.796875 -14.488281 C 13.828125 -14.394531 13.953125 -14.300781 14.015625 -14.300781 L 14.015625 -14.332031 Z M 16.601562 -13.921875 C 16.539062 -13.859375 16.472656 -13.828125 16.472656 -13.796875 L 16.472656 -13.828125 L 16.570312 -13.921875 Z M 16.601562 -13.921875 "/></g></g></g><g fill="#2b0607" fill-opacity="1"><g transform="translate(294.743707, 247.570222)"><g><path d="M 2.644531 -21.355469 C 2.613281 -21.230469 2.613281 -21.167969 2.457031 -21.167969 C 2.300781 -21.199219 2.363281 -21.355469 2.238281 -21.355469 C 2.171875 -21.324219 2.109375 -21.261719 2.078125 -21.167969 C 2.078125 -21.136719 2.109375 -21.074219 2.109375 -21.042969 C 2.109375 -20.914062 1.953125 -20.882812 1.890625 -20.632812 C 1.890625 -20.191406 2.046875 -17.921875 2.078125 -15.96875 C 2.078125 -15.65625 2.078125 -15.339844 2.109375 -15.027344 C 2.109375 -14.363281 2.015625 -13.640625 2.015625 -12.945312 C 2.015625 -12.441406 2.078125 -11.9375 2.078125 -11.527344 L 2.078125 -11.308594 C 2.109375 -10.648438 2.109375 -10.015625 2.109375 -9.355469 L 2.109375 -8.410156 C 2.109375 -8.09375 2.078125 -7.78125 2.046875 -7.464844 L 2.046875 -5.734375 C 2.046875 -5.574219 2.015625 -5.417969 1.984375 -5.261719 L 1.984375 -4.695312 C 1.984375 -4.347656 1.984375 -4 2.015625 -3.652344 L 2.015625 -2.929688 C 2.078125 -2.171875 2.109375 -1.636719 2.109375 -0.976562 L 2.109375 -0.472656 C 2.109375 -0.285156 2.140625 -0.125 2.140625 0.03125 L 2.140625 0.316406 C 2.203125 0.882812 2.550781 1.261719 2.675781 1.324219 C 3.117188 0.945312 3.054688 0.691406 3.277344 0.691406 C 3.277344 0.789062 3.308594 1.039062 3.371094 1.039062 C 3.496094 1.007812 3.464844 0.914062 3.589844 0.945312 C 3.589844 0.976562 3.621094 1.007812 3.683594 1.007812 C 3.84375 0.976562 3.90625 0.882812 4 0.851562 C 4.0625 0.914062 4.222656 1.007812 4.316406 1.007812 C 4.472656 0.976562 4.789062 0.820312 4.820312 0.757812 L 4.945312 0.757812 C 4.945312 0.660156 5.007812 0.628906 5.007812 0.628906 C 5.070312 0.660156 5.132812 0.660156 5.164062 0.660156 C 5.261719 0.597656 5.703125 0.253906 5.703125 -0.03125 L 5.703125 -0.15625 C 5.703125 -0.378906 6.300781 -1.132812 6.363281 -1.386719 L 6.519531 -1.511719 C 6.613281 -1.511719 6.613281 -1.636719 6.710938 -1.734375 L 6.710938 -1.921875 L 6.804688 -2.015625 C 6.742188 -2.425781 6.742188 -2.867188 6.742188 -3.308594 C 6.742188 -3.496094 6.804688 -3.75 6.835938 -3.90625 C 6.804688 -4.222656 6.804688 -4.597656 6.804688 -4.914062 C 6.804688 -5.132812 6.898438 -5.417969 6.898438 -5.636719 L 6.898438 -6.046875 C 6.835938 -6.488281 6.835938 -6.960938 6.835938 -7.433594 C 6.835938 -7.84375 6.898438 -7.96875 7.8125 -8.0625 L 8.632812 -8.0625 L 9.511719 -8.160156 C 10.015625 -8.222656 11.308594 -8.128906 12.472656 -8.347656 C 12.695312 -8.410156 12.945312 -8.410156 13.105469 -8.410156 L 13.105469 -7.71875 C 13.039062 -6.898438 13.039062 -5.574219 12.976562 -4.695312 C 13.007812 -3.246094 13.292969 -1.007812 13.292969 0.125 L 13.417969 0.757812 C 13.449219 0.914062 13.480469 1.132812 13.546875 1.226562 C 13.546875 1.132812 13.609375 1.101562 13.609375 1.101562 C 13.609375 1.039062 13.578125 1.007812 13.578125 0.976562 C 13.578125 0.597656 13.765625 0.472656 13.890625 0.472656 C 13.984375 0.566406 14.082031 0.757812 14.175781 0.851562 L 14.175781 0.757812 C 14.207031 0.722656 14.207031 0.722656 14.238281 0.722656 C 14.207031 0.722656 15.246094 1.007812 15.875 1.007812 C 16.066406 0.976562 16.128906 0.757812 16.316406 0.757812 C 16.316406 0.757812 16.316406 0.789062 16.347656 0.851562 L 16.695312 0.757812 C 16.820312 0.628906 17.011719 0.503906 17.042969 0.503906 C 17.292969 0.503906 17.355469 -0.691406 17.386719 -1.039062 C 17.449219 -1.324219 17.988281 -1.386719 17.988281 -1.605469 C 18.019531 -1.859375 18.144531 -2.238281 18.144531 -2.582031 L 18.050781 -2.582031 C 18.050781 -2.488281 18.050781 -2.394531 18.082031 -2.269531 L 17.988281 -2.269531 C 17.953125 -2.488281 17.953125 -2.675781 17.953125 -2.992188 C 17.988281 -2.992188 18.019531 -3.023438 18.050781 -3.054688 L 18.050781 -3.179688 C 17.988281 -3.214844 17.953125 -3.277344 17.953125 -3.308594 C 17.953125 -3.339844 17.953125 -3.371094 18.019531 -3.433594 L 17.988281 -3.433594 C 17.988281 -3.433594 18.019531 -3.464844 18.019531 -3.496094 C 17.734375 -4.09375 17.828125 -7.78125 17.828125 -8.597656 C 17.828125 -8.945312 17.890625 -9.324219 17.921875 -9.734375 L 17.859375 -10.519531 L 17.859375 -10.835938 C 17.859375 -11.121094 17.859375 -11.371094 17.890625 -11.59375 L 17.890625 -12.066406 C 17.890625 -12.128906 17.921875 -12.160156 17.921875 -12.191406 C 17.921875 -12.222656 17.890625 -12.253906 17.890625 -12.316406 C 17.890625 -12.410156 17.953125 -12.472656 17.953125 -12.472656 L 17.953125 -12.726562 C 17.988281 -12.757812 17.988281 -12.820312 18.050781 -12.851562 C 18.050781 -13.230469 18.019531 -13.546875 18.019531 -13.734375 C 18.019531 -13.984375 18.050781 -14.207031 18.050781 -14.457031 C 18.050781 -14.554688 18.019531 -14.617188 18.019531 -14.679688 C 18.144531 -15.339844 18.207031 -16.191406 18.207031 -16.601562 C 18.207031 -18.867188 17.765625 -20.476562 16.632812 -21.609375 L 16.507812 -21.609375 C 16.632812 -21.453125 16.695312 -21.167969 16.726562 -21.074219 C 15.6875 -21.074219 16.539062 -22.050781 15.9375 -22.050781 C 15.84375 -22.050781 15.75 -22.019531 15.6875 -22.019531 C 15.625 -22.019531 15.59375 -22.050781 15.59375 -22.113281 L 15.496094 -22.175781 C 15.402344 -22.363281 15.214844 -22.269531 15.183594 -22.429688 C 14.554688 -22.332031 14.207031 -22.050781 14.015625 -21.796875 L 13.953125 -21.734375 C 13.859375 -21.546875 13.828125 -21.324219 13.828125 -21.324219 C 13.828125 -21.199219 13.859375 -21.136719 13.859375 -21.105469 C 13.578125 -20.539062 13.703125 -19.59375 13.671875 -19.152344 C 13.578125 -18.019531 13.417969 -17.042969 13.417969 -15.496094 C 13.417969 -15.152344 13.449219 -14.804688 13.449219 -14.457031 C 13.449219 -14.015625 13.417969 -13.546875 13.355469 -13.074219 L 13.355469 -11.90625 C 13.292969 -11.84375 13.230469 -11.8125 13.105469 -11.8125 C 12.882812 -11.8125 12.632812 -11.84375 12.378906 -11.84375 C 12.128906 -11.84375 11.875 -11.8125 11.625 -11.8125 L 11.023438 -11.8125 C 10.363281 -11.8125 9.671875 -11.78125 9.007812 -11.78125 C 8.851562 -11.78125 8.695312 -11.8125 8.535156 -11.8125 C 7.9375 -11.8125 7.433594 -11.78125 7.023438 -11.65625 L 6.835938 -11.65625 L 6.742188 -13.480469 C 6.835938 -14.554688 6.898438 -15.496094 6.898438 -16.507812 C 6.898438 -17.199219 6.804688 -17.921875 6.613281 -18.492188 L 6.613281 -18.804688 C 6.394531 -19.875 6.109375 -20.851562 5.734375 -21.292969 C 5.703125 -21.292969 5.671875 -21.261719 5.636719 -21.261719 C 5.324219 -21.671875 5.070312 -21.578125 4.726562 -21.859375 C 4.695312 -21.828125 4.628906 -21.796875 4.566406 -21.796875 C 4.125 -21.796875 4.03125 -21.925781 3.527344 -21.925781 L 3.402344 -21.925781 C 3.339844 -21.925781 3.246094 -21.890625 3.179688 -21.828125 L 3.023438 -21.828125 C 2.804688 -21.796875 2.773438 -21.828125 2.773438 -21.609375 L 2.773438 -21.386719 C 2.742188 -21.386719 2.675781 -21.386719 2.644531 -21.355469 Z M 2.644531 -21.355469 "/></g></g></g></svg>